<svg width="32" height="33" viewBox="0 0 32 33" fill="none" xmlns="http://www.w3.org/2000/svg">
<path d="M4.5 13C4.5 8.85786 7.85786 5.5 12 5.5H20C24.1421 5.5 27.5 8.85786 27.5 13V21C27.5 25.1421 24.1421 28.5 20 28.5H12C7.85786 28.5 4.5 25.1421 4.5 21V13Z" stroke="white"/>
<path fill-rule="evenodd" clip-rule="evenodd" d="M16.6528 20.858L1.82889 15.4701C1.56936 15.3757 1.43544 15.0889 1.52977 14.8293C1.6241 14.5698 1.91096 14.4359 2.17049 14.5302L16.5412 19.7534L24.1168 0.603736C24.2184 0.346957 24.5089 0.221145 24.7657 0.322728C25.0225 0.424311 25.1483 0.714821 25.0467 0.9716L17.2976 20.5596C17.2976 20.5598 17.2975 20.5601 17.2974 20.5603C17.2031 20.8198 16.9162 20.9537 16.6567 20.8594L16.6528 20.858Z" fill="white"/>
</svg>
