<svg width="25" height="24" viewBox="0 0 25 24" fill="none" xmlns="http://www.w3.org/2000/svg">
<g clip-path="url(#clip0_948_44)">
<path d="M18.6619 0.9091L15.5497 0.904297C12.0532 0.904297 9.79362 3.13428 9.79362 6.58578V9.20532H6.66442C6.39402 9.20532 6.17505 9.41619 6.17505 9.67629V13.4717C6.17505 13.7318 6.39427 13.9424 6.66442 13.9424H9.79362V23.5195C9.79362 23.7796 10.0126 23.9902 10.283 23.9902H14.3657C14.6361 23.9902 14.8551 23.7794 14.8551 23.5195V13.9424H18.5139C18.7843 13.9424 19.0032 13.7318 19.0032 13.4717L19.0047 9.67629C19.0047 9.5514 18.953 9.4318 18.8614 9.34342C18.7698 9.25503 18.6449 9.20532 18.5151 9.20532H14.8551V6.9847C14.8551 5.91738 15.1195 5.37556 16.5649 5.37556L18.6614 5.37484C18.9316 5.37484 19.1505 5.16397 19.1505 4.9041V1.37983C19.1505 1.12021 18.9318 0.909581 18.6619 0.9091Z" fill="white"/>
</g>
<defs>
<clipPath id="clip0_948_44">
<rect width="24" height="23.0859" fill="white" transform="translate(0.661865 0.90625)"/>
</clipPath>
</defs>
</svg>
