<svg width="20" height="21" viewBox="0 0 20 21" fill="none" xmlns="http://www.w3.org/2000/svg">
<path d="M9.99993 14.409C8.00827 14.409 6.3916 12.7924 6.3916 10.8007C6.3916 8.80905 8.00827 7.19238 9.99993 7.19238C11.9916 7.19238 13.6083 8.80905 13.6083 10.8007C13.6083 12.7924 11.9916 14.409 9.99993 14.409ZM9.99993 8.44238C8.69993 8.44238 7.6416 9.50072 7.6416 10.8007C7.6416 12.1007 8.69993 13.159 9.99993 13.159C11.2999 13.159 12.3583 12.1007 12.3583 10.8007C12.3583 9.50072 11.2999 8.44238 9.99993 8.44238Z" fill="white"/>
<path d="M9.9999 18.3175C6.86657 18.3175 3.90824 16.4842 1.8749 13.3008C0.991569 11.9258 0.991569 9.68418 1.8749 8.30085C3.91657 5.11751 6.8749 3.28418 9.9999 3.28418C13.1249 3.28418 16.0832 5.11751 18.1166 8.30085C18.9999 9.67585 18.9999 11.9175 18.1166 13.3008C16.0832 16.4842 13.1249 18.3175 9.9999 18.3175ZM9.9999 4.53418C7.30824 4.53418 4.73324 6.15085 2.93324 8.97585C2.30824 9.95085 2.30824 11.6508 2.93324 12.6258C4.73324 15.4508 7.30824 17.0675 9.9999 17.0675C12.6916 17.0675 15.2666 15.4508 17.0666 12.6258C17.6916 11.6508 17.6916 9.95085 17.0666 8.97585C15.2666 6.15085 12.6916 4.53418 9.9999 4.53418Z" fill="white"/>
</svg>
