<svg width="20" height="21" viewBox="0 0 20 21" fill="none" xmlns="http://www.w3.org/2000/svg">
<path d="M12.2415 19.759C11.8748 19.759 11.4915 19.6506 11.0998 19.4423L7.82485 17.6173C7.66652 17.534 7.32482 17.534 7.16648 17.6173L3.89983 19.4423C3.1915 19.834 2.46649 19.8673 1.91649 19.5423C1.35816 19.2173 1.0415 18.5673 1.0415 17.7673V8.30064C1.0415 6.52564 2.48316 5.08398 4.25816 5.08398H10.7415C12.5165 5.08398 13.9582 6.52564 13.9582 8.30064V17.7673C13.9582 18.5673 13.6415 19.2173 13.0832 19.5423C12.8332 19.684 12.5498 19.759 12.2415 19.759ZM7.49984 16.3006C7.83317 16.3006 8.15817 16.3756 8.43317 16.5256L11.7082 18.3506C12.0082 18.5173 12.2832 18.559 12.4498 18.459C12.6082 18.3673 12.7082 18.1006 12.7082 17.759V8.2923C12.7082 7.20896 11.8248 6.32564 10.7415 6.32564H4.25816C3.17482 6.32564 2.2915 7.20896 2.2915 8.2923V17.759C2.2915 18.1006 2.3915 18.3673 2.54984 18.459C2.70817 18.5506 2.99151 18.509 3.29151 18.3423L6.56651 16.5173C6.83317 16.3756 7.1665 16.3006 7.49984 16.3006Z" fill="white"/>
<path d="M17.2415 16.5256C16.8748 16.5256 16.4915 16.4172 16.0998 16.2089L13.0248 14.4922C12.8248 14.3839 12.7082 14.1756 12.7082 13.9506V8.30058C12.7082 7.21724 11.8249 6.33392 10.7415 6.33392H6.6665C6.32484 6.33392 6.0415 6.05059 6.0415 5.70892V5.06724C6.0415 3.29224 7.48316 1.85059 9.25816 1.85059H15.7415C17.5165 1.85059 18.9582 3.29224 18.9582 5.06724V14.5339C18.9582 15.3339 18.6415 15.9839 18.0832 16.3089C17.8332 16.4506 17.5498 16.5256 17.2415 16.5256ZM13.9582 13.5756L16.7082 15.1172C17.0082 15.2839 17.2832 15.3256 17.4498 15.2256C17.6082 15.1339 17.7082 14.8672 17.7082 14.5256V5.0589C17.7082 3.97557 16.8249 3.09224 15.7415 3.09224H9.25816C8.17483 3.09224 7.2915 3.97557 7.2915 5.0589V5.07558H10.7415C12.5165 5.07558 13.9582 6.51724 13.9582 8.29224V13.5756Z" fill="white"/>
<path d="M9.16683 11.4258H5.8335C5.49183 11.4258 5.2085 11.1424 5.2085 10.8008C5.2085 10.4591 5.49183 10.1758 5.8335 10.1758H9.16683C9.5085 10.1758 9.79183 10.4591 9.79183 10.8008C9.79183 11.1424 9.5085 11.4258 9.16683 11.4258Z" fill="white"/>
<path d="M7.5 13.0926C7.15833 13.0926 6.875 12.8093 6.875 12.4676V9.13428C6.875 8.79261 7.15833 8.50928 7.5 8.50928C7.84167 8.50928 8.125 8.79261 8.125 9.13428V12.4676C8.125 12.8093 7.84167 13.0926 7.5 13.0926Z" fill="white"/>
</svg>
