<svg width="20" height="21" viewBox="0 0 20 21" fill="none" xmlns="http://www.w3.org/2000/svg">
<path d="M9.99984 19.809C9.42484 19.809 8.88317 19.5173 8.49984 19.009L7.24984 17.3423C7.22484 17.309 7.12484 17.2673 7.08317 17.259H6.6665C3.1915 17.259 1.0415 16.3173 1.0415 11.634V7.46729C1.0415 3.78395 2.98317 1.84229 6.6665 1.84229H13.3332C17.0165 1.84229 18.9582 3.78395 18.9582 7.46729V11.634C18.9582 15.3173 17.0165 17.259 13.3332 17.259H12.9165C12.8498 17.259 12.7915 17.2923 12.7498 17.3423L11.4998 19.009C11.1165 19.5173 10.5748 19.809 9.99984 19.809ZM6.6665 3.09229C3.68317 3.09229 2.2915 4.48395 2.2915 7.46729V11.634C2.2915 15.4006 3.58317 16.009 6.6665 16.009H7.08317C7.50817 16.009 7.9915 16.2506 8.24984 16.5923L9.49984 18.259C9.7915 18.6423 10.2082 18.6423 10.4998 18.259L11.7498 16.5923C12.0248 16.2256 12.4582 16.009 12.9165 16.009H13.3332C16.3165 16.009 17.7082 14.6173 17.7082 11.634V7.46729C17.7082 4.48395 16.3165 3.09229 13.3332 3.09229H6.6665Z" fill="white"/>
<path d="M14.1668 8.09229H5.8335C5.49183 8.09229 5.2085 7.80895 5.2085 7.46729C5.2085 7.12562 5.49183 6.84229 5.8335 6.84229H14.1668C14.5085 6.84229 14.7918 7.12562 14.7918 7.46729C14.7918 7.80895 14.5085 8.09229 14.1668 8.09229Z" fill="white"/>
<path d="M10.8335 12.2593H5.8335C5.49183 12.2593 5.2085 11.9759 5.2085 11.6343C5.2085 11.2926 5.49183 11.0093 5.8335 11.0093H10.8335C11.1752 11.0093 11.4585 11.2926 11.4585 11.6343C11.4585 11.9759 11.1752 12.2593 10.8335 12.2593Z" fill="white"/>
</svg>
