<svg width="20" height="21" viewBox="0 0 20 21" fill="none" xmlns="http://www.w3.org/2000/svg">
<path d="M9.99984 18.8426C9.7415 18.8426 9.4915 18.8093 9.28317 18.7343C6.09984 17.6426 1.0415 13.7676 1.0415 8.04261C1.0415 5.12594 3.39984 2.75928 6.29984 2.75928C7.70817 2.75928 9.02484 3.30928 9.99984 4.29261C10.9748 3.30928 12.2915 2.75928 13.6998 2.75928C16.5998 2.75928 18.9582 5.13428 18.9582 8.04261C18.9582 13.7759 13.8998 17.6426 10.7165 18.7343C10.5082 18.8093 10.2582 18.8426 9.99984 18.8426ZM6.29984 4.00928C4.0915 4.00928 2.2915 5.81761 2.2915 8.04261C2.2915 13.7343 7.7665 16.9009 9.6915 17.5593C9.8415 17.6093 10.1665 17.6093 10.3165 17.5593C12.2332 16.9009 17.7165 13.7426 17.7165 8.04261C17.7165 5.81761 15.9165 4.00928 13.7082 4.00928C12.4415 4.00928 11.2665 4.60094 10.5082 5.62594C10.2748 5.94261 9.7415 5.94261 9.50817 5.62594C8.73317 4.59261 7.5665 4.00928 6.29984 4.00928Z" fill="white"/>
</svg>
