<svg width="20" height="21" viewBox="0 0 20 21" fill="none" xmlns="http://www.w3.org/2000/svg">
<path d="M10 8.09252C9.65837 8.09252 9.37503 7.80919 9.37503 7.46752V3.97585L8.77503 4.57585C8.53337 4.81752 8.13337 4.81752 7.8917 4.57585C7.65003 4.33419 7.65003 3.93419 7.8917 3.69252L9.55837 2.02585C9.73337 1.85085 10.0084 1.79252 10.2417 1.89252C10.475 1.98419 10.625 2.21752 10.625 2.46752V7.46752C10.625 7.80919 10.3417 8.09252 10 8.09252Z" fill="white"/>
<path d="M11.6665 4.75931C11.5082 4.75931 11.3499 4.70098 11.2249 4.57598L9.5582 2.90931C9.31654 2.66764 9.31654 2.26764 9.5582 2.02598C9.79987 1.78431 10.1999 1.78431 10.4415 2.02598L12.1082 3.69264C12.3499 3.93431 12.3499 4.33431 12.1082 4.57598C11.9832 4.70098 11.8249 4.75931 11.6665 4.75931Z" fill="white"/>
<path d="M13.3333 19.7591H6.66667C1.875 19.7591 1.875 17.2174 1.875 14.9674V14.1341C1.875 12.2758 1.875 10.1758 5.83333 10.1758C6.825 10.1758 7.19167 10.4174 7.70833 10.8008C7.73333 10.8258 7.76667 10.8424 7.79167 10.8758L8.64167 11.7758C9.35833 12.5341 10.6583 12.5341 11.375 11.7758L12.225 10.8758C12.25 10.8508 12.275 10.8258 12.3083 10.8008C12.825 10.4091 13.1917 10.1758 14.1833 10.1758C18.1417 10.1758 18.1417 12.2758 18.1417 14.1341V14.9674C18.125 18.1508 16.5167 19.7591 13.3333 19.7591ZM5.83333 11.4258C3.125 11.4258 3.125 12.2758 3.125 14.1341V14.9674C3.125 17.2508 3.125 18.5091 6.66667 18.5091H13.3333C15.8167 18.5091 16.875 17.4508 16.875 14.9674V14.1341C16.875 12.2758 16.875 11.4258 14.1667 11.4258C13.5667 11.4258 13.4417 11.5008 13.0833 11.7674L12.275 12.6258C11.675 13.2591 10.8667 13.6091 10 13.6091C9.13333 13.6091 8.325 13.2591 7.725 12.6258L6.91667 11.7674C6.55833 11.5008 6.43333 11.4258 5.83333 11.4258Z" fill="white"/>
<path d="M4.1665 11.4256C3.82484 11.4256 3.5415 11.1423 3.5415 10.8006V9.13397C3.5415 7.5173 3.5415 5.50897 6.60817 5.2173C6.9415 5.17564 7.25817 5.43397 7.2915 5.78397C7.32484 6.12564 7.07484 6.43397 6.72484 6.4673C4.7915 6.6423 4.7915 7.42564 4.7915 9.13397V10.8006C4.7915 11.1423 4.50817 11.4256 4.1665 11.4256Z" fill="white"/>
<path d="M15.8335 11.4256C15.4918 11.4256 15.2085 11.1423 15.2085 10.8006V9.13397C15.2085 7.42564 15.2085 6.64231 13.2752 6.45897C12.9335 6.42564 12.6835 6.11731 12.7168 5.77564C12.7502 5.43397 13.0502 5.17564 13.4002 5.21731C16.4668 5.50897 16.4668 7.51731 16.4668 9.13397V10.8006C16.4585 11.1423 16.1752 11.4256 15.8335 11.4256Z" fill="white"/>
</svg>
