<svg width="25" height="25" viewBox="0 0 25 25" fill="none" xmlns="http://www.w3.org/2000/svg">
<g clip-path="url(#clip0_948_48)">
<path d="M17.9548 0.755859H7.20108C3.54918 0.755859 0.578125 3.65129 0.578125 7.21005V17.6895C0.578125 21.2484 3.54918 24.1437 7.20108 24.1437H17.9548C21.6069 24.1437 24.578 21.2482 24.578 17.6895V7.21005C24.5781 3.65129 21.6069 0.755859 17.9548 0.755859ZM22.4487 17.6895C22.4487 20.1042 20.4328 22.0686 17.9549 22.0686H7.20108C4.72333 22.0687 2.70751 20.1042 2.70751 17.6895V7.21005C2.70751 4.79549 4.72333 2.83094 7.20108 2.83094H17.9548C20.4326 2.83094 22.4486 4.79549 22.4486 7.21005V17.6895H22.4487Z" fill="white"/>
<path d="M12.5775 6.42578C9.16747 6.42578 6.39331 9.1292 6.39331 12.4522C6.39331 15.7751 9.16747 18.4784 12.5775 18.4784C15.9875 18.4784 18.7616 15.7751 18.7616 12.4522C18.7616 9.1292 15.9875 6.42578 12.5775 6.42578ZM12.5775 16.4032C10.3418 16.4032 8.52269 14.6308 8.52269 12.4521C8.52269 10.2733 10.3416 8.50072 12.5775 8.50072C14.8133 8.50072 16.6322 10.2733 16.6322 12.4521C16.6322 14.6308 14.8132 16.4032 12.5775 16.4032Z" fill="white"/>
<path d="M19.0215 4.66602C18.6112 4.66602 18.2082 4.82787 17.9185 5.11147C17.6273 5.39368 17.46 5.78656 17.46 6.18774C17.46 6.58768 17.6275 6.98042 17.9185 7.26402C18.2081 7.54623 18.6112 7.70947 19.0215 7.70947C19.4332 7.70947 19.8349 7.54623 20.1259 7.26402C20.417 6.98042 20.5831 6.58754 20.5831 6.18774C20.5831 5.78656 20.417 5.39368 20.1259 5.11147C19.8364 4.82787 19.4332 4.66602 19.0215 4.66602Z" fill="white"/>
</g>
<defs>
<clipPath id="clip0_948_48">
<rect width="24" height="23.388" fill="white" transform="translate(0.578125 0.755859)"/>
</clipPath>
</defs>
</svg>
