<svg width="25" height="23" viewBox="0 0 25 23" fill="none" xmlns="http://www.w3.org/2000/svg">
<path d="M24.5781 14.0327V22.8763H19.4342V14.6281C19.4342 12.5548 18.6903 11.1407 16.829 11.1407C16.2357 11.1546 15.6619 11.343 15.1885 11.6794C14.715 12.0158 14.3658 12.4833 14.1899 13.016C14.0573 13.4206 13.9994 13.8436 14.0188 14.2666V22.8803H8.87348C8.87348 22.8803 8.94278 8.9052 8.87348 7.46317H14.016V9.64681C14.0061 9.66276 13.9919 9.68137 13.982 9.69599H14.016V9.64681C14.4573 8.85666 15.1258 8.1988 15.9454 7.74814C16.7651 7.29747 17.7029 7.0721 18.6521 7.09768C22.0394 7.09369 24.5781 9.2986 24.5781 14.0327ZM3.49197 0.0217639C3.11096 0.00138489 2.72959 0.0555763 2.37202 0.180905C2.01445 0.306233 1.68847 0.499969 1.41472 0.749843C1.14097 0.999717 0.925417 1.30029 0.781712 1.63252C0.638007 1.96474 0.569279 2.3214 0.579882 2.67988C0.566387 3.03386 0.630732 3.38666 0.768894 3.71621C0.907057 4.04577 1.11607 4.34501 1.38286 4.59522C1.64966 4.84543 1.96851 5.04125 2.31948 5.17042C2.67046 5.2996 3.04601 5.35936 3.42267 5.34598H3.45662C3.8382 5.36603 4.22006 5.31134 4.57796 5.18538C4.93586 5.05941 5.26199 4.86492 5.53567 4.61424C5.80935 4.36355 6.02459 4.06216 6.16776 3.72917C6.31092 3.39618 6.37887 3.03886 6.36729 2.67988C6.37903 2.32408 6.31232 1.96985 6.17136 1.63944C6.0304 1.30904 5.81823 1.00961 5.54819 0.759966C5.27815 0.510326 4.95608 0.315874 4.60222 0.188834C4.24836 0.0617945 3.87036 0.00491259 3.49197 0.0217639ZM0.885376 22.8803H6.02927V7.46317H0.885376V22.8803Z" fill="white"/>
</svg>
