<svg width="141" height="32" viewBox="0 0 141 32" fill="none" xmlns="http://www.w3.org/2000/svg">
<g clip-path="url(#clip0_1365_5429)">
<path fill-rule="evenodd" clip-rule="evenodd" d="M26.1788 5.04913C26.3766 9.09174 9.52411 32.4403 7.34499 31.0714C5.00473 29.6053 4.06716 26.0318 4.85274 24.5401L14.3987 10.512L8.38694 11.4282C4.04702 11.5474 0.879056 11.234 0.5 5.88843C7.32118 4.66612 14.1296 3.40716 20.9471 2.17019C23.0786 1.78169 26.0341 2.09506 26.1788 5.0418V5.04913Z" fill="white"/>
<path fill-rule="evenodd" clip-rule="evenodd" d="M27.2776 11.1416L28.8707 19.8297C29.367 23.9823 28.6583 26.929 23.802 27.662C22.5568 27.1251 21.5808 21.4314 21.6998 19.5127C23.097 17.649 26.2924 13.4653 27.2776 11.1416Z" fill="white"/>
<path fill-rule="evenodd" clip-rule="evenodd" d="M49.3448 5.90081H34.8784V9.21956H43.6059L34.8711 24.3399H49.3375V21.0212H40.6174L49.3448 5.90081ZM66.5269 5.90081V8.03757C65.1816 6.91608 63.5448 6.20146 61.8083 5.97741C60.0718 5.75336 58.3075 6.02916 56.7219 6.7725C55.1364 7.51585 53.7954 8.69595 52.856 10.1746C51.9165 11.6532 51.4176 13.3691 51.4176 15.1213C51.4176 16.8735 51.9165 18.5894 52.856 20.068C53.7954 21.5466 55.1364 22.7267 56.7219 23.4701C58.3075 24.2134 60.0718 24.4892 61.8083 24.2652C63.5448 24.0411 65.1816 23.3265 66.5269 22.205V24.3399H69.8432V5.90081H66.5269ZM60.6304 21.0212C59.4642 21.0212 58.3242 20.6751 57.3546 20.0267C56.3849 19.3783 55.6291 18.4568 55.1829 17.3785C54.7366 16.3003 54.6198 15.1138 54.8473 13.9692C55.0748 12.8245 55.6364 11.7731 56.461 10.9479C57.2857 10.1226 58.3363 9.56063 59.4801 9.33294C60.6239 9.10526 61.8095 9.22212 62.8869 9.66874C63.9643 10.1154 64.8852 10.8717 65.5331 11.8421C66.1811 12.8124 66.5269 13.9533 66.5269 15.1204C66.5269 16.6854 65.9056 18.1863 64.7999 19.2929C63.6941 20.3995 62.1943 21.0212 60.6304 21.0212ZM72.7639 5.90081V32H76.0601L76.0729 22.205C77.4183 23.3272 79.0554 24.0423 80.7924 24.2668C82.5294 24.4912 84.2944 24.2156 85.8805 23.4722C87.4665 22.7288 88.8081 21.5485 89.7479 20.0695C90.6877 18.5904 91.1869 16.874 91.1869 15.1213C91.1869 13.3686 90.6877 11.6521 89.7479 10.1731C88.8081 8.69411 87.4665 7.51376 85.8805 6.77038C84.2944 6.027 82.5294 5.75138 80.7924 5.97581C79.0554 6.20024 77.4183 6.91542 76.0729 8.03757V5.90081H72.7639ZM76.0802 15.1204C76.0802 13.9533 76.426 12.8124 77.0739 11.8421C77.7218 10.8717 78.6427 10.1154 79.7202 9.66874C80.7976 9.22212 81.9832 9.10526 83.127 9.33294C84.2708 9.56063 85.3214 10.1226 86.146 10.9479C86.9707 11.7731 87.5322 12.8245 87.7598 13.9692C87.9873 15.1138 87.8705 16.3003 87.4242 17.3785C86.9779 18.4568 86.2222 19.3783 85.2525 20.0267C84.2829 20.6751 83.1428 21.0212 81.9766 21.0212C80.4128 21.0212 78.913 20.3995 77.8072 19.2929C76.7014 18.1863 76.0802 16.6854 76.0802 15.1204ZM94.3536 5.90081V32H97.6498V22.205C98.9952 23.3272 100.632 24.0423 102.369 24.2668C104.106 24.4912 105.871 24.2156 107.457 23.4722C109.043 22.7288 110.385 21.5485 111.325 20.0695C112.265 18.5904 112.764 16.874 112.764 15.1213C112.764 13.3686 112.265 11.6521 111.325 10.1731C110.385 8.69411 109.043 7.51376 107.457 6.77038C105.871 6.027 104.106 5.75138 102.369 5.97581C100.632 6.20024 98.9952 6.91542 97.6498 8.03757V5.90081H94.3536ZM97.6699 15.1204C97.6699 13.9533 98.0158 12.8124 98.6637 11.8421C99.3116 10.8717 100.232 10.1154 101.31 9.66874C102.387 9.22212 103.573 9.10526 104.717 9.33294C105.86 9.56063 106.911 10.1226 107.736 10.9479C108.56 11.7731 109.122 12.8245 109.35 13.9692C109.577 15.1138 109.46 16.3003 109.014 17.3785C108.568 18.4568 107.812 19.3783 106.842 20.0267C105.873 20.6751 104.733 21.0212 103.566 21.0212C102.003 21.0212 100.503 20.3995 99.3969 19.2929C98.2912 18.1863 97.6699 16.6854 97.6699 15.1204ZM118.168 9.21956H124.471V5.90081H118.168V0H114.852V24.3399H118.168V9.21956ZM124.989 20.8691L125.013 24.1512L135.491 24.0815C141.005 23.4915 142.322 15.8112 137.645 14.063C137.046 13.4986 130.029 13.1907 129.221 12.7637C127.742 11.8896 128.317 8.963 131.201 8.97766L139.375 9.0528V5.75421L130.728 5.70106C124.709 5.95945 123.294 13.6672 127.562 15.7068C128.295 16.0403 135.665 16.6084 135.949 16.8448C138.209 17.7959 137.343 20.7481 134.521 20.8764L124.989 20.8691Z" fill="white"/>
</g>
<defs>
<clipPath id="clip0_1365_5429">
<rect width="140" height="32" fill="white" transform="translate(0.5)"/>
</clipPath>
</defs>
</svg>
